# xmcd CD database file
# Copyright (C) 1993-1998 Ti Kan
#
# Track frame offsets:
#  150
#  11880
#  26788
#  39208
#  54248
#  66898
#  82660
#  100345
#  121838
#  149070
#
# Disc length: 2349 seconds
#
# Revision: 1
# Processed by: cddbd v1.4b41PL1 Copyright (c) Steve Scherf et al.
# Submitted via: CDWizzard Release:4.35
#
DISCID=7e092b0a
DTITLE=Roy Clark - Live From Branson MO. USA
DYEAR=1900
DGENRE=
TTITLE0=Are You From Dixie,Cause I'm From Dixie Too
TTITLE1=Oh, Lonesome Me
TTITLE2=Beaumont Bag
TTITLE3=Tips Of My Fingers
TTITLE4=Thank God and Greyhound
TTITLE5=Under The Double Eagle
TTITLE6=Right Or Left At Oak Street
TTITLE7=Six String Silvertone
TTITLE8=Moscow Nights
TTITLE9=Malaguena
EXTD=
EXTT0=
EXTT1=
EXTT2=
EXTT3=
EXTT4=
EXTT5=
EXTT6=
EXTT7=
EXTT8=
EXTT9=
PLAYORDER=
